<svg width="512" height="512" viewBox="0 0 512 512" fill="none" xmlns="http://www.w3.org/2000/svg">
  <defs>
    <linearGradient id="bg" x1="52" y1="48" x2="454" y2="464" gradientUnits="userSpaceOnUse">
      <stop stop-color="#22C55E"/>
      <stop offset="1" stop-color="#06B6D4"/>
    </linearGradient>
    <linearGradient id="heart" x1="176" y1="176" x2="336" y2="344" gradientUnits="userSpaceOnUse">
      <stop stop-color="#FDE68A"/>
      <stop offset="1" stop-color="#FDBA74"/>
    </linearGradient>
  </defs>

  <rect x="32" y="32" width="448" height="448" rx="128" fill="url(#bg)"/>

  <circle cx="256" cy="256" r="138" stroke="#ECFEFF" stroke-opacity="0.95" stroke-width="26"/>

  <circle cx="210" cy="222" r="28" fill="#ECFEFF"/>
  <circle cx="302" cy="222" r="28" fill="#ECFEFF"/>

  <path d="M174 302C186 266 214 244 256 244C298 244 326 266 338 302" stroke="#ECFEFF" stroke-width="20" stroke-linecap="round"/>

  <path d="M256 340C249 331 222 314 222 290C222 273 235 260 252 260C260 260 268 264 274 271C280 264 288 260 296 260C313 260 326 273 326 290C326 314 263 344 256 340Z" fill="url(#heart)"/>

  <path d="M130 190C130 150 162 118 202 118" stroke="#ECFEFF" stroke-opacity="0.65" stroke-width="14" stroke-linecap="round"/>
</svg>
